<?xml version="1.0" encoding="utf-8"?>
<!-- Generator: Adobe Illustrator 16.0.0, SVG Export Plug-In . SVG Version: 6.00 Build 0)  -->
<!DOCTYPE svg PUBLIC "-//W3C//DTD SVG 1.1//EN" "http://www.w3.org/Graphics/SVG/1.1/DTD/svg11.dtd">
<svg version="1.1" id="Layer_1" xmlns="http://www.w3.org/2000/svg" xmlns:xlink="http://www.w3.org/1999/xlink" x="0px" y="0px"
	 width="400px" height="75px" viewBox="0 0 400 75" enable-background="new 0 0 400 75" xml:space="preserve">
<g>
	<g>
		<path fill="#FFFFFF" d="M8.694,30.215l1.21-0.272c1.633-0.351,1.829-0.468,1.829-3.118V6.443h-0.195
			c-1.517,0-2.182,0.351-3.193,1.636c-1.016,1.286-1.833,3.078-3.197,6.002H3.744l0.313-9.586h24.006l0.31,9.586h-1.401
			c-1.325-2.924-2.144-4.716-3.157-6.002c-1.13-1.402-1.6-1.636-3.235-1.636h-0.192v20.382c0,2.65,0.192,2.767,1.828,3.118
			l1.21,0.272V31.5H8.694V30.215z"/>
		<path fill="#FFFFFF" d="M29.426,30.254l0.742-0.195c1.558-0.428,1.635-0.546,1.635-2.339V7.534c0-2.065-0.039-2.339-1.249-2.961
			L29.231,3.91V2.858L38.934,2l0.506,0.35c0,0-0.116,1.951-0.116,4.561v2.378c0,2.337-0.118,4.053-0.118,4.053h0.195
			c2.182-1.558,4.405-2.806,7.443-2.806c3.04,0,5.067,1.752,5.067,5.221V27.72c0,1.833,0.117,1.949,1.635,2.339l0.741,0.195V31.5
			H42.363v-1.247l0.624-0.156c1.366-0.351,1.403-0.429,1.403-2.378V17.666c0-2.182-0.855-2.845-2.337-2.845
			c-1.133,0-2.027,0.117-2.729,0.234V27.72c0,1.988,0.039,2.027,1.401,2.378l0.625,0.156V31.5H29.426V30.254z"/>
		<path fill="#FFFFFF" d="M54.522,21.252c0-7.056,5.378-10.717,10.563-10.717c5.689,0,9.235,2.727,9.431,9.781H61.811
			c0.195,6.313,2.454,7.755,6.469,7.755c2.144,0,4.014-0.623,5.533-1.404v1.365c-1.559,1.87-4.637,3.937-8.728,3.937
			C58.069,31.97,54.522,28.072,54.522,21.252 M61.811,18.718l5.456-0.35c0-4.715-0.583-6.158-2.573-6.158
			C63.136,12.21,61.927,13.808,61.811,18.718"/>
		<path fill="#FFFFFF" d="M79.776,30.215l0.858-0.273c1.247-0.39,1.596-0.818,2.726-3.897l7.835-21.551h4.832l8.03,21.512
			c1.089,2.921,1.518,3.663,2.725,4.014l0.703,0.195V31.5H92.833v-1.285l1.089-0.273c1.013-0.273,1.443-0.818,1.443-1.677
			c0-0.739-0.35-1.792-0.779-3L94,23.513h-7.364l-0.586,1.793c-0.389,1.129-0.66,2.103-0.66,2.806c0,1.167,0.466,1.441,1.829,1.831
			l0.973,0.273V31.5h-8.417L79.776,30.215L79.776,30.215z M87.297,21.563h6.04l-2.921-8.729h-0.195L87.297,21.563z"/>
		<path fill="#FFFFFF" d="M108.07,25.889V13.73h-2.34v-1.09c3.273-1.325,5.846-3.82,6.978-7.054h2.883v5.456h5.064l-0.583,2.689
			h-4.481v11.808c0,2.065,0.469,2.845,2.533,2.845c0.817,0,2.028-0.156,2.689-0.271v1.285c-1.052,1.052-3.157,2.573-6.779,2.573
			C109.94,31.969,108.07,30.176,108.07,25.889"/>
		<path fill="#FFFFFF" d="M121.397,30.254l0.74-0.195c1.677-0.428,1.754-0.546,1.754-2.339V7.534c0-2.065-0.078-2.299-1.364-2.961
			l-1.326-0.663V2.858L131.02,2l0.51,0.35c0,0-0.119,1.951-0.119,4.561v20.81c0,1.833,0.08,1.911,1.754,2.339l0.741,0.195V31.5
			h-12.51L121.397,30.254L121.397,30.254z"/>
		<path fill="#FFFFFF" d="M134.49,26.825c0-3.547,2.416-5.145,7.794-6.47l3.081-0.779v-3.079c0-3.546-0.742-4.21-2.339-4.21
			c-0.896,0-1.207,0.234-1.284,1.325c-0.197,3.001-1.326,3.898-3.549,3.898c-1.832,0-2.961-0.858-2.961-2.69
			c0-2.534,2.769-4.286,9.392-4.286c4.99,0,8.263,1.441,8.263,5.532V26.2c0,1.674,0.116,2.222,0.858,2.61
			c0.503,0.273,1.402,0.391,1.791,0.391v1.169c-0.817,0.624-2.453,1.598-5.223,1.598c-2.415,0-3.975-0.82-4.521-2.456h-0.154
			c-1.054,1.246-2.571,2.456-5.261,2.456C136.673,31.969,134.49,30.059,134.49,26.825 M145.364,27.955v-6.197l-1.169,0.079
			c-1.717,0.116-2.376,0.936-2.376,3.663c0,2.69,1.01,3.234,2.141,3.234C144.662,28.734,145.091,28.461,145.364,27.955"/>
		<path fill="#FFFFFF" d="M156.547,30.254l0.74-0.195c1.562-0.428,1.64-0.546,1.64-2.339V16.106c0-1.713-0.158-1.87-1.325-2.766
			l-1.251-0.936V11.51l9.394-0.975l0.507,0.35l-0.078,2.611h0.195c2.104-1.598,4.561-2.961,7.598-2.961
			c3.04,0,5.068,1.752,5.068,5.221V27.72c0,1.833,0.115,1.949,1.638,2.339l0.738,0.195V31.5h-11.924v-1.247l0.621-0.156
			c1.365-0.351,1.405-0.429,1.405-2.378V17.666c0-2.182-0.856-2.845-2.338-2.845c-1.132,0-2.029,0.117-2.728,0.234V27.72
			c0,1.988,0.038,2.027,1.401,2.378l0.625,0.156V31.5h-11.926V30.254L156.547,30.254z"/>
		<path fill="#FFFFFF" d="M183.514,25.889V13.73h-2.336v-1.09c3.273-1.325,5.847-3.82,6.975-7.054h2.884v5.456h5.067l-0.588,2.689
			h-4.479v11.808c0,2.065,0.468,2.845,2.534,2.845c0.819,0,2.026-0.156,2.689-0.271v1.285c-1.054,1.052-3.158,2.573-6.784,2.573
			C185.385,31.969,183.514,30.176,183.514,25.889"/>
		<path fill="#FFFFFF" d="M197.156,26.825c0-3.547,2.416-5.145,7.791-6.47l3.08-0.779v-3.079c0-3.546-0.741-4.21-2.34-4.21
			c-0.896,0-1.207,0.234-1.285,1.325c-0.194,3.001-1.324,3.898-3.547,3.898c-1.831,0-2.961-0.858-2.961-2.69
			c0-2.534,2.767-4.286,9.392-4.286c4.991,0,8.264,1.441,8.264,5.532V26.2c0,1.674,0.115,2.222,0.856,2.61
			c0.506,0.273,1.402,0.391,1.793,0.391v1.169c-0.818,0.624-2.456,1.598-5.225,1.598c-2.416,0-3.973-0.82-4.52-2.456H208.3
			c-1.052,1.246-2.571,2.456-5.262,2.456C199.335,31.969,197.156,30.059,197.156,26.825 M208.027,27.955v-6.197l-1.168,0.079
			c-1.717,0.116-2.379,0.936-2.379,3.663c0,2.69,1.013,3.234,2.145,3.234C207.325,28.734,207.753,28.461,208.027,27.955"/>
		<path fill="#FFFFFF" d="M2.887,68.521c0-1.869,1.207-2.922,3.04-2.922c2.183,0,3.195,0.896,3.701,4.287
			c0.118,0.778,0.275,0.934,0.587,0.934c0.817,0,1.246-0.622,1.246-2.648V42.57c0-2.652-0.391-2.807-1.715-3.119l-1.091-0.273
			v-1.285h14.263v1.285l-1.088,0.273c-1.366,0.35-1.716,0.467-1.716,3.119v19.717c0,6.04-4.248,10.25-10.913,10.25
			C4.952,72.537,2.887,70.781,2.887,68.521"/>
		<path fill="#FFFFFF" d="M22.177,54.727c0-7.832,5.613-10.795,11.068-10.795c5.728,0,11.067,3.394,11.067,10.644
			c0,7.833-5.495,10.793-11.067,10.793C27.478,65.367,22.177,61.977,22.177,54.727 M36.518,54.885c0-8.381-1.326-9.197-3.389-9.197
			c-1.951,0-3.157,1.363-3.157,8.338c0,8.535,1.014,9.586,3.352,9.586C35.076,63.611,36.518,63.027,36.518,54.885"/>
		<path fill="#FFFFFF" d="M46.729,60.145V49.389c0-1.714-0.04-1.908-1.324-2.768l-1.247-0.818v-0.895l9.585-0.975l0.507,0.348
			v13.953c0,2.34,0.817,3,2.297,3c1.171,0,2.107-0.311,2.771-0.506v-11.34c0-1.714-0.119-1.988-1.327-2.768l-1.247-0.818v-0.895
			l9.587-0.975l0.507,0.348v15.552c0,2.024,0.039,2.222,1.324,2.728l0.976,0.391v1.09l-9.121,1.327l-0.506-0.351l0.076-2.729h-0.192
			c-2.105,1.601-4.404,3.08-7.599,3.08C48.754,65.367,46.729,63.611,46.729,60.145"/>
		<path fill="#FFFFFF" d="M70.463,63.65l0.741-0.194c1.558-0.429,1.636-0.546,1.636-2.339V49.506c0-1.715-0.155-1.871-1.327-2.768
			l-1.248-0.937v-0.895l9.394-0.976l0.505,0.348l-0.08,2.888h0.198c1.089-1.286,3.31-3.194,5.765-3.194
			c1.988,0,3.235,1.09,3.235,3.233c0,2.104-1.286,3.312-2.999,3.312c-2.028,0-2.495-0.468-3.509-1.908
			c-0.231-0.353-0.546-0.43-0.896-0.43c-0.624,0-1.091,0.352-1.521,0.701v12.235c0,1.948,0.118,2.106,1.48,2.339l0.897,0.154v1.287
			H70.463V63.65z"/>
		<path fill="#FFFFFF" d="M90.102,63.65l0.743-0.194c1.56-0.429,1.636-0.546,1.636-2.339V49.506c0-1.715-0.153-1.871-1.326-2.768
			l-1.248-0.937v-0.895l9.394-0.976l0.507,0.348l-0.077,2.613h0.195c2.104-1.599,4.56-2.961,7.597-2.961
			c3.041,0,5.068,1.754,5.068,5.221v11.964c0,1.833,0.117,1.948,1.636,2.339l0.74,0.195v1.246H103.04V63.65l0.624-0.155
			c1.365-0.353,1.405-0.431,1.405-2.379V51.062c0-2.182-0.857-2.845-2.34-2.845c-1.133,0-2.027,0.117-2.726,0.233v12.665
			c0,1.987,0.037,2.026,1.4,2.379l0.625,0.155v1.246H90.102V63.65z"/>
		<path fill="#FFFFFF" d="M115.747,60.221c0-3.546,2.415-5.144,7.793-6.468l3.077-0.778v-3.078c0-3.547-0.738-4.209-2.336-4.209
			c-0.899,0-1.209,0.232-1.287,1.324c-0.195,3-1.324,3.896-3.545,3.896c-1.832,0-2.962-0.857-2.962-2.689
			c0-2.531,2.766-4.285,9.393-4.285c4.986,0,8.261,1.439,8.261,5.531V59.6c0,1.674,0.118,2.223,0.855,2.609
			c0.509,0.273,1.405,0.391,1.793,0.391v1.17c-0.818,0.623-2.455,1.599-5.222,1.599c-2.417,0-3.973-0.819-4.521-2.457h-0.156
			c-1.051,1.247-2.572,2.457-5.259,2.457C117.928,65.367,115.747,63.456,115.747,60.221 M126.618,61.354v-6.195l-1.167,0.078
			c-1.713,0.115-2.378,0.934-2.378,3.662c0,2.688,1.014,3.233,2.143,3.233C125.918,62.132,126.346,61.857,126.618,61.354"/>
		<path fill="#FFFFFF" d="M137.842,63.65l0.741-0.194c1.675-0.429,1.753-0.546,1.753-2.339V40.932c0-2.063-0.078-2.299-1.365-2.959
			l-1.324-0.663v-1.053l9.822-0.857l0.507,0.35c0,0-0.118,1.949-0.118,4.56v20.81c0,1.833,0.078,1.911,1.752,2.339l0.739,0.195
			v1.246h-12.508L137.842,63.65L137.842,63.65z"/>
		<polygon fill="#FFFFFF" points="150.664,51.454 159.589,51.454 159.005,55.896 150.117,55.896 		"/>
		<path fill="#FFFFFF" d="M161.34,51.611c0-9.86,6.976-14.188,14.653-14.188c3.042,0,5.848,0.429,7.483,0.896l0.507,8.263h-1.363
			c-1.442-2.688-2.495-4.287-3.469-5.533c-1.129-1.442-2.066-1.872-3.586-1.872c-4.013,0-5.105,3.391-5.105,11.653
			c0,10.444,1.636,12.783,5.417,12.783c1.635,0,2.653-0.587,3.936-2.263c1.014-1.363,2.028-3.156,3.195-5.727h1.327l-0.471,8.221
			c-1.871,0.701-4.674,1.521-8.495,1.521C167.148,65.367,161.34,60.534,161.34,51.611"/>
		<path fill="#FFFFFF" d="M186.361,54.727c0-7.832,5.609-10.795,11.066-10.795c5.728,0,11.071,3.394,11.071,10.644
			c0,7.833-5.498,10.793-11.071,10.793C191.657,65.367,186.361,61.977,186.361,54.727 M200.7,54.885
			c0-8.381-1.322-9.197-3.389-9.197c-1.95,0-3.156,1.363-3.156,8.338c0,8.535,1.013,9.586,3.352,9.586
			C199.258,63.611,200.7,63.027,200.7,54.885"/>
		<path fill="#FFFFFF" d="M208.924,63.65l0.739-0.194c1.56-0.429,1.638-0.546,1.638-2.339V49.506c0-1.715-0.158-1.871-1.322-2.768
			l-1.25-0.937v-0.895l9.394-0.976l0.507,0.348l-0.078,2.613h0.193c2.104-1.599,4.561-2.961,7.602-2.961
			c3.039,0,5.067,1.754,5.067,5.221v11.964c0,1.833,0.114,1.948,1.634,2.339l0.741,0.195v1.246h-11.927V63.65l0.623-0.155
			c1.367-0.353,1.402-0.431,1.402-2.379V51.062c0-2.182-0.855-2.845-2.335-2.845c-1.132,0-2.026,0.117-2.729,0.233v12.665
			c0,1.987,0.037,2.026,1.402,2.379l0.621,0.155v1.246h-11.923L208.924,63.65L208.924,63.65z"/>
		<path fill="#FFFFFF" d="M235.581,64.626l-0.351-6.274h1.285c0.937,1.56,1.752,2.767,2.808,3.896
			c0.737,0.818,1.829,1.367,3.31,1.367c1.6,0,2.768-0.821,2.768-2.379c0-1.637-1.012-2.338-4.637-3.663
			c-3.584-1.325-5.574-3.117-5.574-6.664c0-3.779,2.808-6.976,8.888-6.976c2.299,0,4.521,0.352,5.496,0.701l0.272,5.494h-1.209
			c-0.859-1.402-1.561-2.378-2.378-3.234c-0.858-0.895-1.481-1.207-3.003-1.207c-1.167,0-2.259,0.815-2.259,2.222
			c0,1.362,0.43,2.104,3.508,3.194c5.222,1.871,6.74,3.975,6.74,7.015c0,4.327-3.195,7.25-9.353,7.25
			C239.557,65.367,237.18,65.055,235.581,64.626"/>
		<path fill="#FFFFFF" d="M254.014,59.287V47.129h-2.34v-1.092c3.275-1.324,5.846-3.819,6.977-7.053h2.885v5.455h5.066l-0.586,2.688
			h-4.48v11.808c0,2.065,0.469,2.846,2.533,2.846c0.82,0,2.024-0.155,2.688-0.273v1.287c-1.053,1.053-3.157,2.572-6.78,2.572
			C255.884,65.367,254.014,63.574,254.014,59.287"/>
		<path fill="#FFFFFF" d="M267.924,63.65l0.741-0.194c1.562-0.429,1.637-0.546,1.637-2.339V49.506c0-1.715-0.155-1.871-1.323-2.768
			l-1.248-0.937v-0.895l9.744-0.976l0.504,0.348c-0.114,1.835-0.155,3.082-0.155,4.873v11.964c0,1.831,0.118,1.948,1.639,2.339
			l0.738,0.195v1.246h-12.275L267.924,63.65L267.924,63.65z M269.872,38.943c0-2.221,1.756-3.701,4.015-3.701
			c2.262,0,4.014,1.48,4.014,3.701c0,2.223-1.752,3.703-4.014,3.703C271.628,42.646,269.872,41.166,269.872,38.943"/>
		<path fill="#FFFFFF" d="M282.461,59.287V47.129h-2.339v-1.092c3.274-1.324,5.849-3.819,6.978-7.053h2.883v5.455h5.064
			l-0.583,2.688h-4.481v11.808c0,2.065,0.471,2.846,2.533,2.846c0.818,0,2.025-0.155,2.689-0.273v1.287
			c-1.053,1.053-3.155,2.572-6.781,2.572C284.333,65.367,282.461,63.574,282.461,59.287"/>
		<path fill="#FFFFFF" d="M298.751,60.145V49.389c0-1.714-0.038-1.908-1.327-2.768l-1.244-0.818v-0.895l9.586-0.975l0.508,0.348
			v13.953c0,2.34,0.816,3,2.299,3c1.168,0,2.104-0.311,2.768-0.506v-11.34c0-1.714-0.118-1.988-1.324-2.768l-1.252-0.818v-0.895
			l9.593-0.975l0.504,0.348v15.552c0,2.024,0.04,2.222,1.327,2.728l0.974,0.391v1.09l-9.118,1.327l-0.509-0.351l0.079-2.729h-0.196
			c-2.104,1.601-4.402,3.08-7.599,3.08C300.777,65.367,298.751,63.611,298.751,60.145"/>
		<path fill="#FFFFFF" d="M323.303,59.287V47.129h-2.339v-1.092c3.274-1.324,5.844-3.819,6.978-7.053h2.883v5.455h5.064
			l-0.585,2.688h-4.479v11.808c0,2.065,0.468,2.846,2.534,2.846c0.816,0,2.024-0.155,2.688-0.273v1.287
			c-1.055,1.053-3.159,2.572-6.782,2.572C325.171,65.367,323.303,63.574,323.303,59.287"/>
		<path fill="#FFFFFF" d="M337.214,63.65l0.74-0.194c1.561-0.429,1.635-0.546,1.635-2.339V49.506c0-1.715-0.154-1.871-1.323-2.768
			l-1.247-0.937v-0.895l9.741-0.976l0.509,0.348c-0.117,1.835-0.154,3.082-0.154,4.873v11.964c0,1.831,0.117,1.948,1.638,2.339
			l0.738,0.195v1.246h-12.275L337.214,63.65L337.214,63.65z M339.163,38.943c0-2.221,1.753-3.701,4.016-3.701
			c2.259,0,4.011,1.48,4.011,3.701c0,2.223-1.752,3.703-4.011,3.703C340.916,42.646,339.163,41.166,339.163,38.943"/>
		<path fill="#FFFFFF" d="M349.685,54.727c0-7.832,5.609-10.795,11.068-10.795c5.729,0,11.064,3.394,11.064,10.644
			c0,7.833-5.492,10.793-11.064,10.793C354.986,65.367,349.685,61.977,349.685,54.727 M364.026,54.885
			c0-8.381-1.324-9.197-3.392-9.197c-1.945,0-3.154,1.363-3.154,8.338c0,8.535,1.012,9.586,3.349,9.586
			C362.584,63.611,364.026,63.027,364.026,54.885"/>
		<path fill="#FFFFFF" d="M372.25,63.65l0.739-0.194c1.56-0.429,1.638-0.546,1.638-2.339V49.506c0-1.715-0.155-1.871-1.327-2.768
			l-1.247-0.937v-0.895l9.395-0.976l0.506,0.348l-0.078,2.613h0.195c2.105-1.599,4.561-2.961,7.598-2.961
			c3.043,0,5.068,1.754,5.068,5.221v11.964c0,1.833,0.118,1.948,1.636,2.339l0.741,0.195v1.246h-11.929V63.65l0.626-0.155
			c1.362-0.353,1.402-0.431,1.402-2.379V51.062c0-2.182-0.855-2.845-2.336-2.845c-1.135,0-2.028,0.117-2.728,0.233v12.665
			c0,1.987,0.038,2.026,1.399,2.379l0.626,0.155v1.246H372.25V63.65z"/>
	</g>
</g>
</svg>
