<?xml version="1.0" encoding="utf-8"?>
<!-- Generator: Adobe Illustrator 16.0.0, SVG Export Plug-In . SVG Version: 6.00 Build 0)  -->
<!DOCTYPE svg PUBLIC "-//W3C//DTD SVG 1.1//EN" "http://www.w3.org/Graphics/SVG/1.1/DTD/svg11.dtd">
<svg version="1.1" id="Layer_1" xmlns="http://www.w3.org/2000/svg" xmlns:xlink="http://www.w3.org/1999/xlink" x="0px" y="0px"
	 width="90px" height="90px" viewBox="0 0 90 90" enable-background="new 0 0 90 90" xml:space="preserve">
<path fill="#FFFFFF" d="M47.025,45.298V41.27c4.331-0.235,8.587-2.007,11.893-5.312c7.123-7.116,7.123-18.663,0-25.785
	c-2.431-2.43-5.37-4.024-8.478-4.799l0.163-0.735c4.482,0.876,8.761,3.05,12.23,6.521c6.945,6.939,8.694,17.109,5.252,25.68
	C79.867,38.253,89,48.282,89,60.441c0,4.909-1.484,9.472-4.033,13.262l-0.635-0.404c1.647-2.742,2.596-5.955,2.596-9.393
	c0-10.066-8.161-18.23-18.23-18.23c-6.121,0-11.539,3.02-14.845,7.647l-3.323-1.947c0.158-0.469,0.242-0.97,0.242-1.493
	C50.77,47.621,49.164,45.73,47.025,45.298L47.025,45.298z M49.584,52.994l3.251,1.913c-1.509,2.655-2.37,5.728-2.37,8.999
	c0,10.068,8.162,18.232,18.231,18.232c3.434,0,6.646-0.95,9.389-2.6l0.408,0.634c-3.793,2.552-8.355,4.038-13.262,4.038
	c-7.891,0-14.882-3.842-19.203-9.759c-4.328,5.917-11.318,9.759-19.206,9.759c-4.906,0-9.47-1.49-13.259-4.038l0.405-0.634
	c2.741,1.649,5.951,2.6,9.389,2.6c10.069,0,18.229-8.164,18.229-18.232c0-3.266-0.857-6.333-2.36-8.982l3.363-1.938
	c0.855,0.969,2.107,1.579,3.5,1.579C47.483,54.564,48.728,53.958,49.584,52.994L49.584,52.994z M33.135,35.957
	c3.336,3.337,7.649,5.111,12.021,5.316v4.024c-2.138,0.433-3.745,2.324-3.745,4.584c0,0.519,0.085,1.016,0.241,1.483l-3.464,1.933
	c-3.312-4.614-8.722-7.622-14.83-7.622c-10.07,0-18.234,8.164-18.234,18.23c0,3.434,0.951,6.65,2.601,9.393l-0.633,0.404
	c-2.553-3.792-4.041-8.353-4.041-13.262c0-12.159,9.133-22.188,20.917-23.601c-3.444-8.57-1.694-18.74,5.249-25.68
	c3.472-3.471,7.75-5.645,12.233-6.521l0.162,0.735c-3.106,0.775-6.051,2.369-8.477,4.799C26.017,17.294,26.017,28.84,33.135,35.957
	L33.135,35.957z"/>
<path fill="#FFFFFF" d="M69.863,49.883c0,10.223-6.453,18.935-15.504,22.296c-1.05-1.821-1.767-3.858-2.062-6.028
	c6.549-2.501,11.195-8.84,11.195-16.268c0-0.559-0.028-1.115-0.078-1.66c1.66-0.561,3.435-0.862,5.281-0.862
	c0.349,0,0.695,0.014,1.037,0.033C69.815,48.21,69.863,49.042,69.863,49.883L69.863,49.883z M46.091,26.115
	c5.438,0,10.452,1.825,14.458,4.898c-0.739,1.344-1.68,2.61-2.819,3.753c-0.407,0.406-0.829,0.787-1.265,1.142
	c-2.895-2.156-6.484-3.429-10.374-3.429c-3.916,0-7.528,1.293-10.439,3.477c-0.458-0.367-0.899-0.767-1.327-1.191
	c-1.122-1.123-2.048-2.362-2.778-3.688C35.565,27.966,40.613,26.115,46.091,26.115L46.091,26.115z M28.763,48.264
	c-0.052,0.533-0.076,1.074-0.076,1.618c0,7.38,4.589,13.687,11.072,16.218c-0.289,2.175-0.996,4.215-2.043,6.036
	C28.718,68.751,22.32,60.066,22.32,49.882c0-0.843,0.042-1.677,0.131-2.499c0.299-0.016,0.599-0.024,0.907-0.024
	C25.247,47.358,27.067,47.676,28.763,48.264L28.763,48.264z"/>
</svg>
