<?xml version="1.0" encoding="utf-8"?>
<!-- Generator: Adobe Illustrator 16.0.0, SVG Export Plug-In . SVG Version: 6.00 Build 0)  -->
<!DOCTYPE svg PUBLIC "-//W3C//DTD SVG 1.1//EN" "http://www.w3.org/Graphics/SVG/1.1/DTD/svg11.dtd">
<svg version="1.1" id="Layer_1" xmlns="http://www.w3.org/2000/svg" xmlns:xlink="http://www.w3.org/1999/xlink" x="0px" y="0px"
	 width="70.005px" height="70px" viewBox="0 0 70.005 70" enable-background="new 0 0 70.005 70" xml:space="preserve">
<path fill="#FFFFFF" d="M61.374,62.454c1.896-2.317,2.562-5.541,1.458-8.559l-0.999-2.763h6.064V0H2.107v51.132h35.38l3.858,10.588
	c1.095,3.015,3.68,5.062,6.623,5.613l1.812,5.489l15.182,0.002L61.374,62.454z M55.854,34.829c-3.241,1.181-4.917,4.773-3.735,8.017
	l2.34,6.382H4.012V1.904h61.985v47.323h-4.871L55.854,34.829z"/>
<path fill="#FFFFFF" d="M60.372,26.204c-14.011,14.007-36.729,14.007-50.739,0L30.221,5.607c2.638,2.642,6.92,2.642,9.557,0
	L60.372,26.204z M45.768,22.02c2.241-1.539,2.815-4.602,1.286-6.852c-1.542-2.242-4.609-2.818-6.848-1.282
	c-2.246,1.547-2.814,4.606-1.279,6.846C40.46,22.977,43.523,23.549,45.768,22.02z M40.452,24.916
	c-0.1-0.285-0.228-0.556-0.454-0.791c0,0-3.997-4.218-4.984-5.256c0.065-1.254,0.221-4.504,0.221-4.504
	c0.053-1.167-0.856-2.167-2.027-2.22c-1.168-0.058-2.167,0.845-2.219,2.019l-0.252,5.408c-0.03,0.577,0.179,1.146,0.575,1.562
	l1.827,1.929l-5.484,3.62l0.295-4.141c-0.141-1.597-1.552-2.776-3.141-2.64c0,0-5.214,0.36-7.106,0.518
	c-1.196,0.106-2.091,1.162-1.982,2.361c0.1,1.196,1.161,2.087,2.354,1.987c1.32-0.116,4.406-0.221,5.658-0.325
	c0,0-1.083,3.153-0.858,4.71c0.141,1.021,0.433,2.047,1.055,2.959c1.925,2.809,5.766,3.529,8.572,1.602
	c1.005-0.685,6-4.101,6.939-4.746C40.762,28.057,41.172,26.312,40.452,24.916z"/>
</svg>
