<?xml version="1.0" encoding="utf-8"?>
<!-- Generator: Adobe Illustrator 16.0.0, SVG Export Plug-In . SVG Version: 6.00 Build 0)  -->
<!DOCTYPE svg PUBLIC "-//W3C//DTD SVG 1.1//EN" "http://www.w3.org/Graphics/SVG/1.1/DTD/svg11.dtd">
<svg version="1.1" id="Layer_1" xmlns="http://www.w3.org/2000/svg" xmlns:xlink="http://www.w3.org/1999/xlink" x="0px" y="0px"
	 width="70px" height="70px" viewBox="0 -0.001 70 70" enable-background="new 0 -0.001 70 70" xml:space="preserve">
<path fill="#FFFFFF" d="M2.659,2.499C2.537,2.276,2.618,1.995,2.841,1.875L6.18,0.057C6.402-0.066,6.679,0.014,6.802,0.24
	l1.339,2.443c5.06-1.517,10.669,0.64,13.302,5.462l-6.468,3.532c1.069,1.956,0.346,4.413-1.614,5.485
	c-1.963,1.068-4.417,0.347-5.49-1.61L1.4,19.079c-2.637-4.82-1.425-10.703,2.596-14.136L2.659,2.499z"/>
<rect x="48.232" y="46.491" fill="#FFFFFF" width="21.769" height="22.501"/>
<path fill="#FFFFFF" d="M45.735,57.738h-17.58c-3.066,0-5.559-2.488-5.559-5.554c0-3.071,2.493-5.554,5.559-5.554h17.58V57.738z"/>
<path fill="#FFFFFF" d="M7.831,62.244c0-1.242,1.007-2.251,2.249-2.251h35.656v8.999H7.831V62.244z"/>
<ellipse fill="#FFFFFF" cx="14.635" cy="51.033" rx="6.716" ry="6.704"/>
<path fill="#FFFFFF" d="M58.057,32.256L54.28,21.502c-0.732-2.027-2.141-3.61-6.112-3.61H30.729c-3.97,0-5.379,1.583-6.109,3.61
	l-3.776,10.754c-0.282,0.695-0.43,2.255,1.108,3.301l8.881,5.849c1.294,0.858,3.043,0.5,3.899-0.795
	c0.855-1.293,0.498-3.042-0.802-3.896l-4.267-2.814l-2.781-1.833l1.984-5.471h2.747l-1.609,4.439l5.35,3.527
	c1.202,0.792,2.025,2.006,2.312,3.416c0.292,1.411,0.015,2.852-0.779,4.054c-0.315,0.479-0.707,0.886-1.14,1.235h7.407
	c-0.435-0.349-0.822-0.756-1.143-1.235c-0.792-1.202-1.069-2.644-0.779-4.054c0.289-1.411,1.114-2.624,2.313-3.416l5.353-3.527
	l-1.615-4.439h2.75l1.988,5.471l-2.781,1.833l-4.271,2.814c-1.296,0.854-1.658,2.604-0.8,3.896c0.857,1.294,2.603,1.652,3.9,0.795
	l8.879-5.849C58.482,34.511,58.339,32.951,58.057,32.256z"/>
<path fill="#FFFFFF" d="M41.185,7.365c-0.422,0.912-1.341,1.544-2.41,1.544c-1.072,0-1.994-0.632-2.416-1.544h-4.863
	c-0.079,0.427-0.125,0.864-0.125,1.315c0,4.099,3.329,7.422,7.433,7.422c4.103,0,7.43-3.323,7.43-7.422
	c0-0.451-0.047-0.888-0.124-1.315H41.185z"/>
<path fill="#FFFFFF" d="M36.195,5.613c0.289-1.151,1.33-2.01,2.58-2.01c1.242,0,2.291,0.86,2.574,2.01h4.215
	c-1.169-2.567-3.753-4.356-6.761-4.356c-3.006,0-5.595,1.789-6.764,4.356H36.195z"/>
</svg>
